# xmcd
#
# Track frame offsets:
#	182
#	11742
#	29137
#	42917
#	62095
#	78425
#	96925
#	111665
#	140405
#	157120
#	172910
#	189097
#	201300
#	210950
#	225380
#	238947
#	250655
#	275365
#
# Disc length: 3852 seconds
#
# Revision: 7
# Processed by: cddbd v1.5.2PL0 Copyright (c) Steve Scherf et al.
# Submitted via: dBpowerAMP V4.0
#
DISCID=f90f0a12
DTITLE=Various Artist - Urban Cowboy
DYEAR=1980
DGENRE=Soundtrack
TTITLE0=Buffett, Jimmy - Hello Texas
TTITLE1=Walsh, Joe - All Night Long
TTITLE2=Fogelberg, Dan - Times Like These
TTITLE3=Bob Seger And The Silver Bullet Band - Nine Tonight
TTITLE4=Gilley, Mickey - Stand By Me
TTITLE5=Lee, Johnny - Cherokee Fiddle
TTITLE6=Murray, Anne - Could I Have This Dance
TTITLE7=Eagles - Lyin' Eyes
TTITLE8=Lee, Johnny - Lookin' For Love
TTITLE9=Raitt, Bonnie - Don't It Make Ya Wanna Dance
TTITLE10=The Charlie Daniels Band - The Devil Went Down To Georgia
TTITLE11=Gilley, Mickey - Here Comes The Hurt Again
TTITLE12=Gilley's "Urban Cowboy" Band - Orange Blossom Special/Hoedown
TTITLE13=Rogers, Kenny - Love The World Away
TTITLE14=The Charlie Daniels Band - Falling In Love For The Night
TTITLE15=Raitt, Bonnie - Darlin'
TTITLE16=Scaggs, Boz - Look What You've Done To Me
TTITLE17=Linda Ronstadt and J.D. Souther - Hearts Against The Wind
EXTD=movie soundtrack
EXTT0=
EXTT1=
EXTT2=
EXTT3=
EXTT4=
EXTT5=
EXTT6=
EXTT7=
EXTT8=
EXTT9=
EXTT10=
EXTT11=
EXTT12=
EXTT13=
EXTT14=
EXTT15=
EXTT16=
EXTT17=
PLAYORDER=
